<svg height="1886" width="720" xmlns="http://www.w3.org/2000/svg">
<rect height="1886" fill="#555" width="720"></rect>
<text fill="#7f7" font-family="Courier New" font-size="12" xml:space="preserve">
<tspan x="10" y="26">19 megabytes installed</tspan>
<tspan x="10" y="42"></tspan>
<tspan x="10" y="58">node_modules</tspan>
<tspan x="10" y="74">└─┬ coinbase-exchange@0.2.2 </tspan>
<tspan x="10" y="90">  ├── async@1.5.0 </tspan>
<tspan x="10" y="106">  ├── bintrees@1.0.0 </tspan>
<tspan x="10" y="122">  ├─┬ lodash.assign@3.0.0 </tspan>
<tspan x="10" y="138">  │ ├─┬ lodash._baseassign@3.2.0 </tspan>
<tspan x="10" y="154">  │ │ ├── lodash._basecopy@3.0.1 </tspan>
<tspan x="10" y="170">  │ │ └─┬ lodash.keys@3.1.2 </tspan>
<tspan x="10" y="186">  │ │   ├── lodash._getnative@3.9.1 </tspan>
<tspan x="10" y="202">  │ │   └── lodash.isarguments@3.1.0 </tspan>
<tspan x="10" y="218">  │ └─┬ lodash._createassigner@3.1.1 </tspan>
<tspan x="10" y="234">  │   ├── lodash._isiterateecall@3.0.9 </tspan>
<tspan x="10" y="250">  │   └── lodash.restparam@3.6.1 </tspan>
<tspan x="10" y="266">  ├─┬ lodash.foreach@3.0.0 </tspan>
<tspan x="10" y="282">  │ ├── lodash._arrayeach@3.0.0 </tspan>
<tspan x="10" y="298">  │ ├── lodash._baseeach@3.0.4 </tspan>
<tspan x="10" y="314">  │ ├── lodash._bindcallback@3.0.1 </tspan>
<tspan x="10" y="330">  │ └── lodash.isarray@3.0.4 </tspan>
<tspan x="10" y="346">  ├─┬ lodash.partial@3.0.0 </tspan>
<tspan x="10" y="362">  │ ├── lodash._baseslice@3.0.3 </tspan>
<tspan x="10" y="378">  │ ├─┬ lodash._createwrapper@3.2.0 </tspan>
<tspan x="10" y="394">  │ │ └── lodash._root@3.0.1 </tspan>
<tspan x="10" y="410">  │ └── lodash._replaceholders@3.0.0 </tspan>
<tspan x="10" y="426">  ├─┬ nock@3.6.0 </tspan>
<tspan x="10" y="442">  │ ├─┬ chai@3.5.0 </tspan>
<tspan x="10" y="458">  │ │ ├── assertion-error@1.0.2 </tspan>
<tspan x="10" y="474">  │ │ ├─┬ deep-eql@0.1.3 </tspan>
<tspan x="10" y="490">  │ │ │ └── type-detect@0.1.1 </tspan>
<tspan x="10" y="506">  │ │ └── type-detect@1.0.0 </tspan>
<tspan x="10" y="522">  │ ├─┬ debug@2.6.3 </tspan>
<tspan x="10" y="538">  │ │ └── ms@0.7.2 </tspan>
<tspan x="10" y="554">  │ ├── deep-equal@1.0.1 </tspan>
<tspan x="10" y="570">  │ ├── json-stringify-safe@5.0.1 </tspan>
<tspan x="10" y="586">  │ ├── lodash@2.4.1 </tspan>
<tspan x="10" y="602">  │ ├─┬ mkdirp@0.5.1 </tspan>
<tspan x="10" y="618">  │ │ └── minimist@0.0.8 </tspan>
<tspan x="10" y="634">  │ └── propagate@0.3.1 </tspan>
<tspan x="10" y="650">  ├─┬ num@0.2.1 </tspan>
<tspan x="10" y="666">  │ └── int@0.1.1 </tspan>
<tspan x="10" y="682">  ├─┬ request@2.74.0 </tspan>
<tspan x="10" y="698">  │ ├── aws-sign2@0.6.0 </tspan>
<tspan x="10" y="714">  │ ├── aws4@1.6.0 </tspan>
<tspan x="10" y="730">  │ ├─┬ bl@1.1.2 </tspan>
<tspan x="10" y="746">  │ │ └─┬ readable-stream@2.0.6 </tspan>
<tspan x="10" y="762">  │ │   ├── core-util-is@1.0.2 </tspan>
<tspan x="10" y="778">  │ │   ├── inherits@2.0.3 </tspan>
<tspan x="10" y="794">  │ │   ├── isarray@1.0.0 </tspan>
<tspan x="10" y="810">  │ │   ├── process-nextick-args@1.0.7 </tspan>
<tspan x="10" y="826">  │ │   ├── string_decoder@0.10.31 </tspan>
<tspan x="10" y="842">  │ │   └── util-deprecate@1.0.2 </tspan>
<tspan x="10" y="858">  │ ├── caseless@0.11.0 </tspan>
<tspan x="10" y="874">  │ ├─┬ combined-stream@1.0.5 </tspan>
<tspan x="10" y="890">  │ │ └── delayed-stream@1.0.0 </tspan>
<tspan x="10" y="906">  │ ├── extend@3.0.0 </tspan>
<tspan x="10" y="922">  │ ├── forever-agent@0.6.1 </tspan>
<tspan x="10" y="938">  │ ├─┬ form-data@1.0.1 </tspan>
<tspan x="10" y="954">  │ │ └─┬ async@2.3.0 </tspan>
<tspan x="10" y="970">  │ │   └── lodash@4.17.4 </tspan>
<tspan x="10" y="986">  │ ├─┬ har-validator@2.0.6 </tspan>
<tspan x="10" y="1002">  │ │ ├─┬ chalk@1.1.3 </tspan>
<tspan x="10" y="1018">  │ │ │ ├── ansi-styles@2.2.1 </tspan>
<tspan x="10" y="1034">  │ │ │ ├── escape-string-regexp@1.0.5 </tspan>
<tspan x="10" y="1050">  │ │ │ ├─┬ has-ansi@2.0.0 </tspan>
<tspan x="10" y="1066">  │ │ │ │ └── ansi-regex@2.1.1 </tspan>
<tspan x="10" y="1082">  │ │ │ ├── strip-ansi@3.0.1 </tspan>
<tspan x="10" y="1098">  │ │ │ └── supports-color@2.0.0 </tspan>
<tspan x="10" y="1114">  │ │ ├─┬ commander@2.9.0 </tspan>
<tspan x="10" y="1130">  │ │ │ └── graceful-readlink@1.0.1 </tspan>
<tspan x="10" y="1146">  │ │ ├─┬ is-my-json-valid@2.16.0 </tspan>
<tspan x="10" y="1162">  │ │ │ ├── generate-function@2.0.0 </tspan>
<tspan x="10" y="1178">  │ │ │ ├─┬ generate-object-property@1.2.0 </tspan>
<tspan x="10" y="1194">  │ │ │ │ └── is-property@1.0.2 </tspan>
<tspan x="10" y="1210">  │ │ │ ├── jsonpointer@4.0.1 </tspan>
<tspan x="10" y="1226">  │ │ │ └── xtend@4.0.1 </tspan>
<tspan x="10" y="1242">  │ │ └─┬ pinkie-promise@2.0.1 </tspan>
<tspan x="10" y="1258">  │ │   └── pinkie@2.0.4 </tspan>
<tspan x="10" y="1274">  │ ├─┬ hawk@3.1.3 </tspan>
<tspan x="10" y="1290">  │ │ ├── boom@2.10.1 </tspan>
<tspan x="10" y="1306">  │ │ ├── cryptiles@2.0.5 </tspan>
<tspan x="10" y="1322">  │ │ ├── hoek@2.16.3 </tspan>
<tspan x="10" y="1338">  │ │ └── sntp@1.0.9 </tspan>
<tspan x="10" y="1354">  │ ├─┬ http-signature@1.1.1 </tspan>
<tspan x="10" y="1370">  │ │ ├── assert-plus@0.2.0 </tspan>
<tspan x="10" y="1386">  │ │ ├─┬ jsprim@1.4.0 </tspan>
<tspan x="10" y="1402">  │ │ │ ├── assert-plus@1.0.0 </tspan>
<tspan x="10" y="1418">  │ │ │ ├── extsprintf@1.0.2 </tspan>
<tspan x="10" y="1434">  │ │ │ ├── json-schema@0.2.3 </tspan>
<tspan x="10" y="1450">  │ │ │ └── verror@1.3.6 </tspan>
<tspan x="10" y="1466">  │ │ └─┬ sshpk@1.13.0 </tspan>
<tspan x="10" y="1482">  │ │   ├── asn1@0.2.3 </tspan>
<tspan x="10" y="1498">  │ │   ├── assert-plus@1.0.0 </tspan>
<tspan x="10" y="1514">  │ │   ├── bcrypt-pbkdf@1.0.1 </tspan>
<tspan x="10" y="1530">  │ │   ├─┬ dashdash@1.14.1 </tspan>
<tspan x="10" y="1546">  │ │   │ └── assert-plus@1.0.0 </tspan>
<tspan x="10" y="1562">  │ │   ├── ecc-jsbn@0.1.1 </tspan>
<tspan x="10" y="1578">  │ │   ├─┬ getpass@0.1.6 </tspan>
<tspan x="10" y="1594">  │ │   │ └── assert-plus@1.0.0 </tspan>
<tspan x="10" y="1610">  │ │   ├── jodid25519@1.0.2 </tspan>
<tspan x="10" y="1626">  │ │   ├── jsbn@0.1.1 </tspan>
<tspan x="10" y="1642">  │ │   └── tweetnacl@0.14.5 </tspan>
<tspan x="10" y="1658">  │ ├── is-typedarray@1.0.0 </tspan>
<tspan x="10" y="1674">  │ ├── isstream@0.1.2 </tspan>
<tspan x="10" y="1690">  │ ├─┬ mime-types@2.1.15 </tspan>
<tspan x="10" y="1706">  │ │ └── mime-db@1.27.0 </tspan>
<tspan x="10" y="1722">  │ ├── node-uuid@1.4.8 </tspan>
<tspan x="10" y="1738">  │ ├── oauth-sign@0.8.2 </tspan>
<tspan x="10" y="1754">  │ ├── qs@6.2.3 </tspan>
<tspan x="10" y="1770">  │ ├── stringstream@0.0.5 </tspan>
<tspan x="10" y="1786">  │ ├─┬ tough-cookie@2.3.2 </tspan>
<tspan x="10" y="1802">  │ │ └── punycode@1.4.1 </tspan>
<tspan x="10" y="1818">  │ └── tunnel-agent@0.4.3 </tspan>
<tspan x="10" y="1834">  └─┬ ws@1.1.1 </tspan>
<tspan x="10" y="1850">    ├── options@0.0.6 </tspan>
<tspan x="10" y="1866">    └── ultron@1.0.2</tspan>
</text>
</svg>
